<svg width="34" height="34" viewBox="0 0 34 34" fill="none" xmlns="http://www.w3.org/2000/svg">
<g clip-path="url(#clip0_7_438)">
<path d="M0.876563 11.402H7.50391V32.6122H0.876563V11.402ZM4.05078 1.38794C1.60703 1.38794 0 2.96841 0 5.06685C0 7.12544 1.55391 8.74575 3.95781 8.74575H4.01094C6.50781 8.74575 8.06172 7.11216 8.04844 5.06685C7.99531 2.96841 6.49453 1.38794 4.05078 1.38794ZM25.6063 11.2028C21.8078 11.2028 19.4305 13.2747 18.9922 14.7356V11.402H11.5414C11.6344 13.1684 11.5414 32.6122 11.5414 32.6122H18.9922V21.1504C18.9922 20.4997 18.9656 19.8622 19.1516 19.4106C19.6562 18.1356 20.7586 16.8075 22.7375 16.8075C25.3273 16.8075 26.4961 18.7731 26.4961 21.6418V32.6122H34.0133V20.8184C34.0133 14.2575 30.3211 11.2028 25.6063 11.2028Z" fill="#FF6A00"/>
</g>
<defs>
<clipPath id="clip0_7_438">
<rect width="34" height="34" fill="white"/>
</clipPath>
</defs>
</svg>
